{"title":"Bullet 1996 DVDRip BigPerm LKRG[ExtraTorrent]","uid":5538080,"size":1027543234,"categoryP":"video","categoryS":"movies","magnet":"?xt=urn:btih:49cb9d20338a0d46cf6faebd2983b4509b92c947&amp;dn=Bullet+1996+DVDRip+BigPerm+LKRG%5BExtraTorrent%5D&amp;tr=udp%3A%2F%2Ftracker.openbittorrent.com%3A80&amp;tr=udp%3A%2F%2Fopen.demonii.com%3A1337&amp;tr=udp%3A%2F%2Ftracker.coppersurfer.tk%3A6969&amp;tr=udp%3A%2F%2Fexodus.desync.com%3A6969","seeders":2,"leechers":0,"uploader":"raymondhome","files":-1,"time":1273140170,"description":"Love for All and Sharing is the first step to solving all the problems of humanity.\n\nWebsites I want to share.\n\n    &lt;a href=&quot;\nhttp://www.shareintl.org/&quot; rel=&quot;nofollow&quot; target=&quot;_NEW&quot;&gt;\nhttp://www.shareintl.org/&lt;/a&gt;\n\n    &lt;a href=&quot;\nhttp://www.lightmiddleway.com&quot; rel=&quot;nofollow&quot; target=&quot;_NEW&quot;&gt;\nhttp://www.lightmiddleway.com&lt;/a&gt;\n\n\nThank you very much\n\nNo credit for me...credit to EVERYONE for sharing\n &lt;a href=&quot;\nhttp://thepiratebay.se/user/raymondhome/&quot; rel=&quot;nofollow&quot; target=&quot;_NEW&quot;&gt;\nhttp://thepiratebay.se/user/raymondhome/&lt;/a&gt;\n\nPLOT\nButch &quot;Bullet&quot; Stein is a Jewish junkie from the mean streets of Brooklyn, is paroled after eight years in prison. Butch rips off a runner for local drug dealer, Tank, and is soon right back into his old habits of snorting coke and shooting up heroin with his best friend Lester. Enraged by Butch's affront and already determined to get revenge on him for a past wrong, Tank sets about getting even with his old enemy by hiring a hulking brute, Gates to beat Butch. When the confrontation occurs, however, Gates breaks his hand on the battle-hardened Butch. Besides Lester, the only people in Butch's corner are his two brothers, the mentally-unhinged Vietnam War veteran Louis and aspiring artist Ruby, neither of whom can be counted on to help him in the inevitable showdown.\n\nGeneral:\nComplete name : Bullet 1996dvdrip BigPerm LKRG.m4v\nFormat : MPEG-4\nFormat profile : Base Media / Version 2\nCodec ID : mp42\nFile size : 980 MiB\nDuration : 1h 36mn\nOverall bit rate : 1 426 Kbps\nWriting application : HandBrake 0.9.4 2009112300\n\nVideo:\nID : 1\nFormat : AVC\nFormat/Info : Advanced Video Codec\nFormat profile : &lt;a class=&quot;__cf_email__&quot; href=&quot;/cdn-cgi/l/email-protection&quot; data-cfemail=&quot;783519111638344b5648&quot;&gt;[email&amp;#160;protected]&lt;/a&gt;&lt;script cf-hash='f9e31' type=&quot;text/javascript&quot;&gt;\n/* &lt;![CDATA[ */!function(){try{var t=&quot;currentScript&quot;in document?document.currentScript:function(){for(var t=document.getElementsByTagName(&quot;script&quot;),e=t.length;e--;)if(t[e].getAttribute(&quot;cf-hash&quot;))return t[e]}();if(t&amp;&amp;t.previousSibling){var e,r,n,i,c=t.previousSibling,a=c.getAttribute(&quot;data-cfemail&quot;);if(a){for(e=&quot;&quot;,r=parseInt(a.substr(0,2),16),n=2;a.length-n;n+=2)i=parseInt(a.substr(n,2),16)^r,e+=String.fromCharCode(i);e=document.createTextNode(e),c.parentNode.replaceChild(e,c)}}}catch(u){}}();/* ]]&gt; */&lt;/script&gt;\nFormat settings, CABAC : Yes\nFormat settings, ReFrames : 2 frames\nCodec ID : avc1\nCodec ID/Info : Advanced Video Coding\nDuration : 1h 36mn\nBit rate mode : Variable\nBit rate : 1 261 Kbps\nWidth : 716 pixels\nHeight : 480 pixels\nDisplay aspect ratio : 16:9\nFrame rate mode : Variable\nFrame rate : 25.556 fps\nMinimum frame rate : 11.652 fps\nMaximum frame rate : 47.145 fps\nOriginal frame rate : 23.976 fps\nResolution : 8 bits\nColorimetry : 4:2:0\nScan type : Progressive\nBits/(Pixel*Frame) : 0.144\nStream size : 867 MiB (88%)\nWriting library : x264 core 79\n\nAudio:\nID : 2\nFormat : AAC\nFormat/Info : Advanced Audio Codec\nFormat version : Version 4\nFormat profile : LC\nFormat settings, SBR : No\nCodec ID : 40\nDuration : 1h 36mn\nBit rate mode : Variable\nBit rate : 160 Kbps\nMaximum bit rate : 209 Kbps\nChannel(s) : 2 channels\nChannel positions : Front: L R\nSampling rate : 48.0 KHz\nStream size : 110 MiB (11%)\nLanguage : English \n\ncredit BigPerm1828 BIG BIG BIG TIME &amp; to all the people who made it possible for me to share this with everyone...especially EVERYONE involve in the production of the movie...IF YOU LIKE IT...BUY IT :)\n\n*****help what we can with others in need...the world is ONE big family*****","torrent":{"xt":"urn:btih:49cb9d20338a0d46cf6faebd2983b4509b92c947","amp;dn":"Bullet+1996+DVDRip+BigPerm+LKRG%5BExtraTorrent%5D","amp;tr":["udp%3A%2F%2Ftracker.openbittorrent.com%3A80","udp%3A%2F%2Fopen.demonii.com%3A1337","udp%3A%2F%2Ftracker.coppersurfer.tk%3A6969","udp%3A%2F%2Fexodus.desync.com%3A6969"],"infoHash":"49cb9d20338a0d46cf6faebd2983b4509b92c947","infoHashBuffer":{"type":"Buffer","data":[73,203,157,32,51,138,13,70,207,111,174,189,41,131,180,80,155,146,201,71]},"announce":[],"urlList":[]}}